@startuml



package o.w.o.server.io.db {
    annotation EntityEnumerated {}
}

package o.w.o.resource.symbol {
    package repository {
      interface EntityTypeRepository<Integer, EntityType> {
        + save(EntityType type)
      }
    }

    package domain {
      class EntityType {
        + EntityType(EntityTypeEnum type)
      }
      enum EntityTypeEnum {
        + Integer id
        + String typeName
      }
    }
}

EntityType *-- EntityEnumerated
EntityTypeRepository *-- EntityEnumerated
EntityTypeEnum *-- EntityEnumerated

package o.w.o.server.io.runner {
    class EnumeratedEntitySetupRunner {}
    note bottom of EnumeratedEntitySetupRunner
      基于 <b>@EntityEnumerated</b> 注解
      借助 <b>EntityTypeRepository</b>
      使用 <b>EntityTypeEnum</b> 枚举
      进行实体 <b>EntityType</b> 收集和持久化
    end note
}
EnumeratedEntitySetupRunner -right--* EntityEnumerated
@enduml